<?xml version="1.0" standalone="no"?><!DOCTYPE svg PUBLIC "-//W3C//DTD SVG 1.1//EN" "http://www.w3.org/Graphics/SVG/1.1/DTD/svg11.dtd"><svg t="1558595855222" class="icon" style="" viewBox="0 0 1024 1024" version="1.1" xmlns="http://www.w3.org/2000/svg" p-id="3388" xmlns:xlink="http://www.w3.org/1999/xlink" width="200" height="200"><defs><style type="text/css"></style></defs><path d="M830.836364 69.818182h-256c-32.581818 0-62.836364 11.636364-86.109091 34.909091L107.054545 491.054545c-46.545455 46.545455-46.545455 123.345455 0 172.218182l256 256c23.272727 23.272727 55.854545 34.909091 86.109091 34.909091 30.254545 0 62.836364-11.636364 86.109091-34.909091l307.2-307.2c9.309091-9.309091 9.309091-23.272727 0-32.581818s-23.272727-9.309091-32.581818 0L500.363636 884.363636c-30.254545 30.254545-76.8 30.254545-104.727272 0L139.636364 628.363636c-30.254545-30.254545-30.254545-76.8 0-104.727272L523.636364 139.636364c13.963636-13.963636 32.581818-23.272727 53.527272-23.272728h256C872.727273 116.363636 907.636364 151.272727 907.636364 193.163636v256c0 13.963636 9.309091 23.272727 23.272727 23.272728s23.272727-9.309091 23.272727-23.272728v-256C954.181818 125.672727 898.327273 69.818182 830.836364 69.818182z" fill="" p-id="3389"></path><path d="M500.363636 384c0 76.8 62.836364 139.636364 139.636364 139.636364s139.636364-62.836364 139.636364-139.636364-62.836364-139.636364-139.636364-139.636364-139.636364 62.836364-139.636364 139.636364z m232.727273 0c0 51.2-41.890909 93.090909-93.090909 93.090909s-93.090909-41.890909-93.090909-93.090909 41.890909-93.090909 93.090909-93.090909 93.090909 41.890909 93.090909 93.090909z" fill="" p-id="3390"></path></svg>