<?xml version="1.0" standalone="no"?><!DOCTYPE svg PUBLIC "-//W3C//DTD SVG 1.1//EN" "http://www.w3.org/Graphics/SVG/1.1/DTD/svg11.dtd"><svg t="1551867335014" class="icon" style="" viewBox="0 0 1024 1024" version="1.1" xmlns="http://www.w3.org/2000/svg" p-id="5212" xmlns:xlink="http://www.w3.org/1999/xlink" width="200" height="200"><defs><style type="text/css"></style></defs><path d="M653.67426845 482.29034667c0 16.31118222-12.99069155 29.53489067-29.12711112 29.53489066a29.360128 29.360128 0 0 1-29.12711111-29.53489066v-30.69997512c0-20.73850311 7.22352355-40.77795555 20.27246933-56.73961244l237.96849778-289.75650133H162.47466667l237.96849778 289.75650133c13.04894578 15.96165689 20.21421511 36.00110933 20.2142151 56.73961244v496.90851556c0 16.31118222-12.99069155 29.53489067-29.1271111 29.53489067a29.360128 29.360128 0 0 1-29.12711112-29.53489067v-496.90851556a29.82616178 29.82616178 0 0 0-6.69923555-18.874368L117.735424 142.901248A59.65232355 59.65232355 0 0 1 104.22044445 105.03600355C104.22044445 72.47189333 130.318336 45.96622222 162.47466667 45.96622222h691.18634666c13.631488 0 26.79694222 4.83510045 37.28270222 13.68974223 24.69979022 20.91326578 28.07853511 58.195968 7.45654045 83.30353777l-237.96849778 289.75650133a29.82616178 29.82616178 0 0 0-6.75748977 18.874368v30.69997512z m-54.29293512 125.24657778h291.27111112c16.07816533 0 29.12711111 13.28196267 29.1271111 29.59314488s-13.04894578 29.53489067-29.1271111 29.53489067h-291.27111112a29.360128 29.360128 0 0 1-29.12711111-29.53489067c0-16.31118222 13.04894578-29.59314489 29.12711111-29.59314488z m0 118.2560711h291.27111112c16.07816533 0 29.12711111 13.22370845 29.1271111 29.53489067s-13.04894578 29.59314489-29.1271111 29.59314489h-291.27111112a29.360128 29.360128 0 0 1-29.12711111-29.59314489c0-16.31118222 13.04894578-29.53489067 29.12711111-29.53489067z m0 118.25607112h291.27111112c16.07816533 0 29.12711111 13.22370845 29.1271111 29.53489066s-13.04894578 29.53489067-29.1271111 29.53489067h-291.27111112a29.360128 29.360128 0 0 1-29.12711111-29.53489067c0-16.31118222 13.04894578-29.59314489 29.12711111-29.59314488z" fill="" p-id="5213"></path></svg>