<?xml version="1.0" standalone="no"?><!DOCTYPE svg PUBLIC "-//W3C//DTD SVG 1.1//EN" "http://www.w3.org/Graphics/SVG/1.1/DTD/svg11.dtd"><svg t="1599810718957" class="icon" viewBox="0 0 1024 1024" version="1.1" xmlns="http://www.w3.org/2000/svg" p-id="3046" xmlns:xlink="http://www.w3.org/1999/xlink" width="200" height="200"><defs><style type="text/css"></style></defs><path d="M817.453594 801.476279 206.504526 801.476279c-55.393609 0-101.182681-42.494492-105.649907-97.329698-8.934453-64.439743 47.24092-108.162722 92.527429-143.342131 2.345294-1.842731 4.578907-3.573781 6.75668-5.248991L200.138728 356.372996C199.971207 350.900643 199.301123 200.243429 399.265351 90.852219 425.286945 12.564075 479.842949 0 512.00698 0c55.50529 0 97.6089 32.778275 116.538772 89.065329 192.649144 105.761588 195.608681 251.839895 195.32948 268.759516l0 197.674774c1.786891 1.396008 3.629622 2.847857 5.472352 4.243865l-5.472352 9.660377 6.75668-8.655251c45.286509 35.235249 101.406042 78.958229 92.527429 143.342131C918.636274 758.981786 872.903043 801.476279 817.453594 801.476279zM214.936416 689.795616l594.029447 0c-9.772058-11.893991-33.336678-30.26546-47.017559-40.875123 0 0-0.05584-0.05584-0.05584-0.05584l34.397644-44.002181L760.496455 647.747846c-11.447268-8.934453-22.894536-18.036427-30.544661-25.128149-11.335587-10.553823-17.813066-25.407351-17.813066-40.875123L712.138728 356.763878c0-4.690588-2.847857-103.863017-156.129567-179.526666-15.858654-7.817646-27.02672-22.671175-30.209619-40.093358C522.616643 119.442469 517.591013 112.964991 516.418366 112.239066c0 0-4.076344-0.335042-5.304831-0.446723C511.057694 112.741629 505.752863 119.945032 501.397317 140.605955 497.879376 157.358054 486.822991 171.597339 471.466899 179.135784c-153.784273 75.942851-159.479987 173.663431-159.647508 177.795616l0 224.757334c0 15.523612-6.477478 30.3213-17.813066 40.875123-7.650125 7.091722-19.097393 16.193696-30.544661 25.128149C248.496455 659.362635 224.764315 677.845785 214.936416 689.795616zM813.153888 581.744574l-16.91962 23.117897 17.980587-23.117897L813.153888 581.744574zM510.164249 1023.94416c-92.806631 0-176.958011-53.159996-214.371033-135.412804-12.787436-28.087687-0.390882-61.201003 27.696804-73.932599 27.976006-12.787436 61.201003-0.446723 73.932599 27.696804 19.655797 43.164576 62.820373 69.967935 112.741629 69.967935 50.59134 0 97.329698-28.087687 116.315411-69.912095 12.787436-28.087687 46.012433-40.4284 73.932599-27.752645 28.087687 12.731596 40.48424 45.844912 27.752645 73.932599C690.751881 970.784164 605.204493 1023.94416 510.164249 1023.94416z" p-id="3047"></path></svg>