<?xml version="1.0" standalone="no"?><!DOCTYPE svg PUBLIC "-//W3C//DTD SVG 1.1//EN" "http://www.w3.org/Graphics/SVG/1.1/DTD/svg11.dtd"><svg t="1599804155214" class="icon" viewBox="0 0 1024 1024" version="1.1" xmlns="http://www.w3.org/2000/svg" p-id="1730" xmlns:xlink="http://www.w3.org/1999/xlink" width="200" height="200"><defs><style type="text/css"></style></defs><path d="M967.962558 762.632854v-4.618469c-11.281374-29.794218-26.6786-55.481576-45.817965-77.873454-28.069537-40.215249-81.176928-116.082238-81.176929-144.450546V326.891043C832.72097 213.749557 753.225756 0.001998 511.10989 0.001998s-321.611081 213.747558-329.857775 329.857775v207.150603c0 28.367309-53.107392 104.235297-81.474701 144.807273-18.848587 22.032153-34.245814 47.720511-44.924648 75.737088l-0.595545 6.397108C51.576271 771.714909 50.027456 780.661069 50.027456 789.968951c0 16.981015 5.15306 32.758951 13.981309 45.853938 13.64057 14.507907 33.274557 23.731853 55.061897 23.731854 2.265268 0 4.507553-0.099924 6.722859-0.294775l191.360677 0.019985c16.447424 94.102045 97.532422 164.719048 195.110808 164.719048s178.663385-70.616004 194.938941-163.531956l191.819325-1.186093c1.927526 0.174866 4.169812 0.27479 6.436079 0.27479 21.78734 0 41.421327-9.223947 55.207785-23.980663 7.95192-12.443485 12.650327-27.560926 12.650327-43.774528 0-10.483983-1.964498-20.508318-5.54476-29.727269zM510.120646 956.589545c-61.108274-0.046964-112.490984-41.628169-127.447547-98.037036l255.431684-0.920296c-15.172398 57.361139-66.605071 98.957332-127.753313 98.957332h-0.243814z m386.592393-164.928887H114.291316c0.441662-5.841533 1.377946-11.240405 2.779875-16.449422l-0.140892-2.352201c12.114736-20.920004 23.885736-38.582498 36.621997-55.47758 51.780406-74.156297 92.352383-135.84013 92.352382-181.360323V331.83926c0-10.885676 22.100101-265.534959 263.88622-265.534959S773.677118 321.28433 773.677118 330.19052v206.820855c0 45.520193 40.571977 106.874279 93.34962 182.741267 11.428261 15.213367 23.084349 32.654031 33.802154 50.719218l1.492858 6.346147c0 4.618468 2.309234 11.215424 2.638982 15.832894z" fill="#51404F" p-id="1731"></path></svg>