<?xml version="1.0" standalone="no"?><!DOCTYPE svg PUBLIC "-//W3C//DTD SVG 1.1//EN" "http://www.w3.org/Graphics/SVG/1.1/DTD/svg11.dtd"><svg t="1561355188701" class="icon" viewBox="0 0 1024 1024" version="1.1" xmlns="http://www.w3.org/2000/svg" p-id="4203" xmlns:xlink="http://www.w3.org/1999/xlink" width="200" height="200"><defs><style type="text/css"></style></defs><path d="M512 0C229.222291 0 0 229.222291 0 512c0 282.777709 229.222291 512 512 512 282.777709 0 512-229.201014 512-512C1023.978723 229.222291 794.777709 0 512 0zM77.194697 512c0-240.116361 194.667664-434.784025 434.784025-434.784025 64.811204 0 126.324398 14.213357 181.582014 39.639945L279.330757 879.313136C157.857624 802.224826 77.194697 666.538337 77.194697 512zM512 946.762748c-52.257491 0-102.344679-9.234426-148.729585-26.107468L773.819391 164.90047c105.068196 79.343723 172.943357 205.285127 172.943357 347.09953C946.762748 752.116361 752.116361 946.762748 512 946.762748z" p-id="4204"></path></svg>