<?xml version="1.0" standalone="no"?><!DOCTYPE svg PUBLIC "-//W3C//DTD SVG 1.1//EN" "http://www.w3.org/Graphics/SVG/1.1/DTD/svg11.dtd"><svg t="1560923540961" class="icon" style="" viewBox="0 0 1024 1024" version="1.1" xmlns="http://www.w3.org/2000/svg" p-id="1619" xmlns:xlink="http://www.w3.org/1999/xlink" width="200" height="200"><defs><style type="text/css"></style></defs><path d="M886.4 846.7H176.2V137.3c0-21.5-17.5-39-39-39s-39 17.5-39 39v735.5c0 2.2 0.2 4.3 0.5 6.4-0.5 2.6-0.8 5.3-0.8 8.1 0 22.5 18.6 40.7 41.6 40.7h746.7c23 0 41.6-18.2 41.6-40.7s-18.4-40.6-41.4-40.6z" fill="" p-id="1620"></path><path d="M397.9 535.1c0-25.6-20.8-46.4-46.4-46.4h-32c-25.6 0-46.4 20.8-46.4 46.4v246.5h124.7V535.1zM616.2 274.8c0-25.6-20.8-46.4-46.4-46.4h-32c-25.6 0-46.4 20.8-46.4 46.4v506.8h124.7V274.8zM865.6 405c0-25.6-20.8-46.4-46.4-46.4h-32c-25.6 0-46.4 20.8-46.4 46.4v376.6h124.7V405z" fill="" p-id="1621"></path></svg>