<?xml version="1.0" standalone="no"?><!DOCTYPE svg PUBLIC "-//W3C//DTD SVG 1.1//EN" "http://www.w3.org/Graphics/SVG/1.1/DTD/svg11.dtd"><svg t="1599803977977" class="icon" viewBox="0 0 1024 1024" version="1.1" xmlns="http://www.w3.org/2000/svg" p-id="1577" xmlns:xlink="http://www.w3.org/1999/xlink" width="200" height="200"><defs><style type="text/css"></style></defs><path d="M833.84 659.68A158.16 158.16 0 1 0 992 817.84a158.36 158.36 0 0 0-158.16-158.16zM720 867.44L775.28 812a8 8 0 0 1 5.64-2.36h70.48l39.24-39.24h-36a8 8 0 0 1 0-16h55.24a8 8 0 0 1 8 8v55.24a8 8 0 0 1-16 0v-36l-41.6 41.6a8 8 0 0 1-5.64 2.36h-70.4l-52.88 52.88a8 8 0 0 1-11.32 0 8 8 0 0 1-0.04-11.04zM64 817.84a158.16 158.16 0 1 0 158.16-158.16A158.36 158.36 0 0 0 64 817.84z m261.76-36.36l-28.52 16.48 0.28 1.4a91.48 91.48 0 0 1 0 36.96l-0.28 1.4 28.52 16.48a8 8 0 0 1 2.92 10.92l-20.28 35.16a8 8 0 0 1-10.92 2.92l-28.56-16.48-1.08 0.96a92.44 92.44 0 0 1-32 18.48l-1.36 0.44v33a8 8 0 0 1-8 8H185.88a8 8 0 0 1-8-8v-33l-1.36-0.44a92.48 92.48 0 0 1-32-18.48l-1.08-0.96-28.56 16.48a8 8 0 0 1-10.92-2.92l-20.28-35.16a8 8 0 0 1 2.92-10.92l28.52-16.48-0.28-1.4a91.48 91.48 0 0 1 0-36.96l0.28-1.4-28.52-16.48a8 8 0 0 1-2.92-10.92l20.32-35.16a8 8 0 0 1 10.92-2.92l28.56 16.48 1.08-0.96a92.32 92.32 0 0 1 32-18.48l1.36-0.44V696a8 8 0 0 1 8-8h40.52a8 8 0 0 1 8 8v33l1.36 0.44A92.32 92.32 0 0 1 268 748l1.08 0.96 28.56-16.48a8 8 0 0 1 10.92 2.92l20.28 35.16a8 8 0 0 1-3.08 10.92z" fill="#40BDFF" p-id="1578"></path><path d="M222.16 659.68a158.76 158.76 0 0 0-20 1.32 158.12 158.12 0 0 1 0 313.72 158.16 158.16 0 1 0 20-315zM833.84 659.68a158.76 158.76 0 0 0-20 1.32 158.12 158.12 0 0 1 0 313.72 158.16 158.16 0 1 0 20-315z" fill="#2197F7" p-id="1579"></path><path d="M539.48 267.68a110.2 110.2 0 1 0-22.96 0zM325.4 452.64V504h397.24v-51.36a169.12 169.12 0 0 0-168.92-168.92h-59.4a169.12 169.12 0 0 0-168.92 168.92z" fill="#EFFAFE" p-id="1580"></path><path d="M528 48a110.52 110.52 0 0 0-16 1.16 110.12 110.12 0 0 1 0 217.92l4.56 0.6h22.96A110.16 110.16 0 0 0 528 48zM553.68 283.68h-32a169.12 169.12 0 0 1 168.92 168.92V504h32v-51.36a169.12 169.12 0 0 0-168.92-168.96z" fill="#E4EBED" p-id="1581"></path><path d="M206.16 781.2a36.64 36.64 0 1 0 36.64 36.64 36.68 36.68 0 0 0-36.64-36.64z" fill="#40BDFF" p-id="1582"></path><path d="M271.64 765.84a8 8 0 0 1-9.76-1.4 76.92 76.92 0 0 0-37.32-21.52 8 8 0 0 1-6.08-7.76V704h-24.6v31.08a8 8 0 0 1-6.08 7.76 76.92 76.92 0 0 0-37.32 21.52 8 8 0 0 1-9.76 1.4l-26.88-15.52-12.28 21.28 26.88 15.52a8 8 0 0 1 3.68 9.16 76 76 0 0 0 0 43.12 8 8 0 0 1-3.68 9.16L101.52 864l12.28 21.28 26.88-15.52a8 8 0 0 1 9.76 1.4 76.92 76.92 0 0 0 37.32 21.52 8 8 0 0 1 6.08 7.76v31.04h24.6v-31.04a8 8 0 0 1 6.08-7.76 76.92 76.92 0 0 0 37.32-21.52 8 8 0 0 1 9.76-1.4l26.88 15.52 12.36-21.28-26.84-15.44a8 8 0 0 1-3.68-9.16 76 76 0 0 0 0-43.12 8 8 0 0 1 3.68-9.16l26.88-15.52-12.28-21.28z m-12.84 52a52.64 52.64 0 1 1-52.64-52.64 52.72 52.72 0 0 1 52.64 52.64z" fill="#FFDD00" p-id="1583"></path><path d="M817.84 641.68a175.44 175.44 0 0 0-117.2 44.8L536 522h182.48a10 10 0 0 0 10-10v-59.36a187.2 187.2 0 0 0-152.36-183.68 128 128 0 1 0-128.52 0 187.2 187.2 0 0 0-152.36 183.68V512a10 10 0 0 0 10 10H488l-164.6 164.48a176.44 176.44 0 1 0 14.16 14.16L512 526.16l174.48 174.48a176 176 0 1 0 131.36-58.96z m-455.52 176a156 156 0 1 1-156-156 156.36 156.36 0 0 1 156 156.16zM404 158.16a108 108 0 1 1 119.52 107.56h-22.76A108.28 108.28 0 0 1 404 158.16z m-88.48 344v-49.52a167.12 167.12 0 0 1 166.92-166.92h59.36a167.12 167.12 0 0 1 166.92 166.92v49.36z m502.44 472a156 156 0 1 1 156-156 156.36 156.36 0 0 1-156.12 155.84z" fill="#263238" p-id="1584"></path><path d="M206.16 763.2a54.64 54.64 0 1 0 54.64 54.64 54.72 54.72 0 0 0-54.64-54.64z m0 89.28a34.64 34.64 0 1 1 34.64-34.64 34.68 34.68 0 0 1-34.64 34.64z" fill="#263238" p-id="1585"></path><path d="M296.48 730.72l-27.32 15.76a94.76 94.76 0 0 0-32.68-18.88V696a10 10 0 0 0-10-10H185.88A10 10 0 0 0 176 696v31.56a94.76 94.76 0 0 0-32.68 18.88L116 730.72a10 10 0 0 0-13.68 3.68l-20.28 35.16a10 10 0 0 0 3.68 13.68l27.28 15.76a93.48 93.48 0 0 0 0 37.76l-27.28 15.76a10 10 0 0 0-3.68 13.68l20.28 35.16a10 10 0 0 0 13.68 3.68l27.32-15.76A94.84 94.84 0 0 0 176 908v31.56a10 10 0 0 0 10 10h40.44a10 10 0 0 0 10-10V908a94.8 94.8 0 0 0 32.68-18.88l27.32 15.76a10 10 0 0 0 13.68-3.68l20.28-35.16a10 10 0 0 0-3.68-13.68l-27.28-15.76a93.48 93.48 0 0 0 0-37.76l27.28-15.76a10 10 0 0 0 3.68-13.68l-20.28-35.16a10 10 0 0 0-13.64-3.52z m-13.52 54.68a10 10 0 0 0-4.6 11.44 74.16 74.16 0 0 1 0 42 10 10 0 0 0 4.6 11.44L308 864.8l-10.28 17.84-25.08-14.64a10 10 0 0 0-12.2 1.72 74.96 74.96 0 0 1-36.44 21.12 10 10 0 0 0-7.64 9.72v29.04H196v-29.04a10 10 0 0 0-7.64-9.72 74.96 74.96 0 0 1-36.36-21 10 10 0 0 0-12.2-1.72l-25.16 14.52-10.28-17.84 25.12-14.52a10 10 0 0 0 4.6-11.44 74.2 74.2 0 0 1 0-42 10 10 0 0 0-4.6-11.44l-25.12-14.52 10.28-17.84 25.16 14.52a10 10 0 0 0 12.2-1.72 74.92 74.92 0 0 1 36.36-20.96 10 10 0 0 0 7.64-9.72v-29.08h20.6v29.08a10 10 0 0 0 7.4 9.68 74.92 74.92 0 0 1 36.36 20.96 10 10 0 0 0 12.2 1.72l25.16-14.52 10.28 17.88zM910 752.6h-55.28a10 10 0 0 0 0 20h31.08l-35.2 35.4h-69.68a10 10 0 0 0-7.08 2.92l-55.2 55.08a10 10 0 1 0 14.16 14.16L785.08 828h69.64a10 10 0 0 0 7.08-2.92l38.16-38.16v31.08a10 10 0 0 0 20 0v-55.4a10 10 0 0 0-9.96-10z" fill="#263238" p-id="1586"></path><path d="M853.84 134.56h-16v-16a4 4 0 0 0-8 0v16h-16a4 4 0 0 0 0 8h16v16a4 4 0 0 0 8 0v-16h16a4 4 0 0 0 0-8zM222.8 524h-16v-16a4 4 0 0 0-8 0v16h-16a4 4 0 0 0 0 8h16v16a4 4 0 0 0 8 0v-16h16a4 4 0 0 0 0-8z" fill="#FFDD00" p-id="1587"></path><path d="M304.8 289.96h-16v-16a4 4 0 0 0-8 0v16h-16a4 4 0 0 0 0 8h16v16a4 4 0 0 0 8 0v-16h16a4 4 0 0 0 0-8zM595.32 936h-16v-16a4 4 0 0 0-8 0v16h-16a4 4 0 0 0 0 8h16v16a4 4 0 1 0 8 0v-16h16a4 4 0 0 0 0-8zM800 377.96a24 24 0 1 1 24-24 24 24 0 0 1-24 24z m0-40a16 16 0 1 0 16 16 16 16 0 0 0-16-16zM699.68 104a24 24 0 1 1 24-24 24 24 0 0 1-24 24z m0-40a16 16 0 1 0 16 16 16 16 0 0 0-16-16z" fill="#40BDFF" p-id="1588"></path><path d="M448 768a24 24 0 1 1 24-24 24 24 0 0 1-24 24z m0-40a16 16 0 1 0 16 16 16 16 0 0 0-16-16z" fill="#FFDD00" p-id="1589"></path><path d="M829.84 561.84h-10.36l7.32-7.32a4 4 0 0 0-5.64-5.64l-7.32 7.12v-10.36a4 4 0 1 0-8 0V556l-7.32-7.32a4 4 0 0 0-5.64 5.64l7.32 7.32h-10.36a4 4 0 0 0 0 8H800l-7.32 7.32a4 4 0 0 0 5.64 5.64l7.32-7.32v10.36a4 4 0 0 0 8 0v-10.36l7.32 7.32a4 4 0 0 0 5.64-5.64l-7.32-7.32h10.36a4 4 0 0 0 0-8z" fill="#40BDFF" p-id="1590"></path></svg>